<?xml version="1.0" encoding="UTF-8"?>
<svg id="Layer_1" xmlns="http://www.w3.org/2000/svg" version="1.1" viewBox="0 0 66.48 81.89">
  <!-- Generator: Adobe Illustrator 29.7.1, SVG Export Plug-In . SVG Version: 2.1.1 Build 8)  -->
  <defs>
    <style>
      .st0 {
        fill: #d4d2e3;
      }

      .st1 {
        fill: #e61e25;
      }
    </style>
  </defs>
  <path class="st0" d="M8.21,79.13v-12.39h4.68v12.39h-4.68Z"/>
  <g>
    <path class="st0" d="M25.73,71.7v8.77c0,.79.63,1.42,1.42,1.42h7.35c.79,0,1.42-.63,1.42-1.42v-7.35c0-.79-.63-1.42-1.42-1.42h-8.77Z"/>
    <path class="st1" d="M20.73,46.32H1.78c-.79,0-1.42.63-1.42,1.42v17.54c0,.79.63,1.42,1.42,1.42h18.96v-20.38Z"/>
    <path class="st0" d="M25.73,1.99v39.33h39.33c.79,0,1.42-.63,1.42-1.42V1.99c0-.79-.63-1.42-1.42-1.42H27.15c-.79,0-1.42.63-1.42,1.42Z"/>
    <path class="st0" d="M8.21,46.32v-23.04h4.68v23.04h-4.68Z"/>
    <path class="st0" d="M25.73,23.28H8.21v-4.68h17.53v4.68Z"/>
    <path class="st0" d="M25.73,79.13h-12.85v-4.68h12.85v4.68Z"/>
  </g>
</svg>