<?xml version="1.0" encoding="UTF-8"?>
<svg id="Layer_1" xmlns="http://www.w3.org/2000/svg" version="1.1" viewBox="0 0 198.12 96.18">
  <!-- Generator: Adobe Illustrator 29.7.1, SVG Export Plug-In . SVG Version: 2.1.1 Build 8)  -->
  <defs>
    <style>
      .st0 {
        fill: #d4d2e3;
      }

      .st1 {
        fill: #e61e25;
      }
    </style>
  </defs>
  <path class="st0" d="M25.73,71.7v8.77c0,.79.63,1.42,1.42,1.42h7.35c.79,0,1.42-.63,1.42-1.42v-7.35c0-.79-.63-1.42-1.42-1.42h-8.77Z"/>
  <path class="st1" d="M20.73,46.32H1.78c-.79,0-1.42.63-1.42,1.42v17.54c0,.79.63,1.42,1.42,1.42h18.96v-20.38Z"/>
  <path class="st0" d="M25.73,1.99v39.33h39.33c.79,0,1.42-.63,1.42-1.42V1.99c0-.79-.63-1.42-1.42-1.42H27.15c-.79,0-1.42.63-1.42,1.42Z"/>
  <g>
    <path d="M46.83,96.18v-24.49h10.44c1.1,0,2.12.11,3.04.34s1.72.59,2.37,1.08,1.17,1.13,1.53,1.92.54,1.74.54,2.86c0,1.39-.33,2.56-.99,3.49s-1.57,1.61-2.72,2.05c1.3.36,2.33,1.02,3.1,1.97s1.15,2.16,1.15,3.64c0,1.3-.19,2.41-.56,3.32s-.91,1.65-1.59,2.21-1.51.97-2.48,1.22-2.04.38-3.23.38h-10.62ZM51.5,81.58h6.38c.77,0,1.3-.18,1.58-.54s.42-.9.42-1.62v-1.88c0-1.24-.67-1.86-2-1.86h-6.38v5.91ZM51.5,92.23h6.63c.77,0,1.35-.18,1.73-.53s.57-.91.57-1.67v-2.41c0-1.39-.72-2.09-2.16-2.09h-6.77v6.7Z"/>
    <path d="M70.55,96.18v-24.49h16.84v3.97h-12.16v6.01h10.51v3.96h-10.51v6.59h12.16v3.96h-16.84Z"/>
    <path d="M90.31,96.18l8.34-24.49h4.98l8.3,24.49h-5.03l-1.62-5.22h-8.36l-1.58,5.22h-5.03ZM98.13,87.01h5.95l-2.83-9.65h-.16l-2.96,9.65Z"/>
    <path d="M115.89,96.18v-24.49h8.28c3.87,0,6.65,1.01,8.34,3.04s2.54,5.1,2.54,9.21-.85,7.17-2.54,9.19-4.47,3.04-8.34,3.04h-8.28ZM120.56,92.23h3.6c1.95,0,3.43-.38,4.46-1.15s1.55-1.97,1.55-3.61v-7.05c0-1.63-.52-2.83-1.55-3.59s-2.52-1.15-4.46-1.15h-3.6v16.56Z"/>
  </g>
  <path class="st0" d="M136.43,96.18v-5.19h5.22v5.19h-5.22Z"/>
  <path class="st0" d="M146.06,96.18v-3.88l12.53-16.63h-11.95v-3.97h17.75v3.9l-12.6,16.63h12.53v3.96h-18.26Z"/>
  <path class="st0" d="M169.57,96.18v-24.49h4.68v24.49h-4.68Z"/>
  <path class="st0" d="M180.47,96.18v-24.49h9.97c2.61,0,4.55.63,5.8,1.89s1.88,3.25,1.88,5.97-.7,4.54-2.09,5.86-3.25,1.98-5.55,1.98h-5.33v8.79h-4.68ZM185.15,83.44h5.8c.82,0,1.41-.21,1.77-.62s.54-1.02.54-1.83v-3.02c0-.82-.17-1.41-.5-1.77s-.93-.54-1.8-.54h-5.8v7.77Z"/>
  <path class="st0" d="M8.21,46.32v-23.04h4.68v23.04h-4.68Z"/>
  <path class="st0" d="M8.21,79.13v-12.39h4.68v12.39h-4.68Z"/>
  <path class="st0" d="M25.73,23.28H8.21v-4.68h17.53v4.68Z"/>
  <path class="st0" d="M25.73,79.13h-12.85v-4.68h12.85v4.68Z"/>
</svg>